<svg width="217" height="154" viewBox="0 0 217 154" fill="none" xmlns="http://www.w3.org/2000/svg">
    <g clip-path="url(#clip0_8_145)">
        <path d="M69.2276 54.8844L67.8516 55.3893C67.8343 55.3029 67.8142 55.2166 67.7911 55.1302C67.6127 54.4676 67.5321 55.6583 67.0686 55.2166C67.1017 55.7879 66.3892 49.9153 66.3201 50.48C66.2913 50.7175 66.5404 54.6519 66.4929 54.8844L55.8071 55.0023C55.8676 53.8149 55.3192 54.2716 54.8341 53.2236C54.5477 54.2085 54.5031 53.4943 54.0497 54.3862C53.8597 54.7632 53.6567 55.1252 53.4379 55.479C53.3329 55.6534 53.222 55.8244 53.1083 55.9938L52.963 56.047L52.2433 39.7713C52.2433 34.4053 56.2735 31.7995 59.44 35.2871C61.1226 37.1403 65.2377 34.7142 66.1863 36.4713C67.1334 38.23 67.5004 40.6581 67.5004 43.342L69.2276 54.8844Z" fill="#2F2E41"/>
        <path d="M52.3769 147.331L54.6952 147.394L55.9874 135.377L52.5662 135.283L52.3769 147.331Z" fill="#FFB7B7"/>
        <path d="M60.3306 152.912C60.3306 153.364 60.0526 153.73 59.7098 153.73H55.1082C55.1082 153.73 54.6554 151.63 52.8091 150.726L52.6817 153.73H50.3079L50.5955 148.899C50.5955 148.899 49.9605 146.315 51.2793 144.994C52.5981 143.673 51.5299 143.857 51.5299 143.857L52.0487 140.867L55.6357 141.354L55.6621 146.047L57.4029 150.705L59.9562 152.161C60.1834 152.29 60.3306 152.585 60.3306 152.912Z" fill="#2F2E41"/>
        <path d="M59.4299 145.373L61.6584 146.113L65.5513 134.867L62.2626 133.775L59.4299 145.373Z" fill="#FFB7B7"/>
        <path d="M65.8959 153.1C65.7966 153.537 65.4472 153.81 65.1156 153.709L60.6646 152.362C60.6646 152.362 60.6885 150.198 59.1015 148.783L58.3175 151.651L56.0214 150.956L57.362 146.368C57.362 146.368 57.3161 143.682 58.8823 142.791C60.4484 141.899 59.3748 141.764 59.3748 141.764L60.5341 139.024L63.8967 140.545L62.89 145.093L63.5493 150.108L65.699 152.264C65.8903 152.455 65.9677 152.784 65.8959 153.1Z" fill="#2F2E41"/>
        <path d="M65.0535 50.4905L58.0007 51.3209L53.5387 80.8829L67.0686 83.3741L65.0535 50.4905Z" fill="#0D1C4C"/>
        <path d="M51.5236 55.9711L52.2433 75.2362L45.9102 88.0243L50.5161 92.8406C50.5161 92.8406 59.0082 73.4094 59.2961 68.0949C59.584 62.7803 57.9283 51.8004 57.9283 51.8004L51.5236 55.9711Z" fill="#2F2E41"/>
        <path d="M71.6745 55.9711L70.9548 75.2362L77.288 88.0243L67.5004 93.1727C67.5004 93.1727 64.1899 73.4094 63.902 68.0949C63.6142 62.7803 65.2698 51.8004 65.2698 51.8004L71.6745 55.9711Z" fill="#2F2E41"/>
        <path d="M54.4023 79.056L51.0918 79.5543L49.2206 102.639L51.8115 137.592H56.0502L59.1522 98.6533L64.6217 113.268L60.6198 137.592L64.6217 138.062L72.6821 112.77L67.0686 83.3741L54.4023 79.056Z" fill="#2F2E41"/>
        <path d="M67.9889 99.8964C68.1455 99.2601 68.4137 98.7173 68.733 98.3301L69.893 92.1596L72.4215 92.8824L70.9726 99.064C71.0678 99.587 71.0488 100.211 70.8922 100.848C70.5344 102.301 69.5945 103.267 68.7927 103.004C67.991 102.741 67.6311 101.35 67.9889 99.8964Z" fill="#FFB6B6"/>
        <path d="M68.3388 54.7232C68.3388 54.7232 73.0072 54.4488 73.3472 58.021C73.6872 61.5931 74.7747 81.9374 74.7747 81.9374L72.2538 95.6694L68.659 95.093L70.2476 77.6137L68.3388 54.7232Z" fill="#2F2E41"/>
        <path d="M28.3256 65.3932C28.857 65.6476 29.2945 66.0194 29.5916 66.4318L34.7863 68.4864L33.8666 71.3099L28.6962 68.9217C28.2333 68.9702 27.6962 68.8753 27.1648 68.6209C25.9509 68.0397 25.2267 66.846 25.5473 65.9547C25.8678 65.0634 27.1117 64.812 28.3256 65.3932Z" fill="#FFB6B6"/>
        <path d="M57.9878 56.8249L46.1373 75.2822L32.246 70.8686L32.8499 66.6872L43.4277 68.9989L49.3289 58.531C51.2558 54.2332 55.0537 53.3676 57.9878 56.8249Z" fill="#2F2E41"/>
        <path d="M61.0075 48.8088C63.878 48.8088 66.205 46.1238 66.205 42.8117C66.205 39.4995 63.878 36.8145 61.0075 36.8145C58.1369 36.8145 55.8099 39.4995 55.8099 42.8117C55.8099 46.1238 58.1369 48.8088 61.0075 48.8088Z" fill="#FFB7B7"/>
        <path d="M68.6519 42.5946H66.9009L66.4252 41.855C66.1942 41.855 66.024 42.5661 65.8029 42.5118C65.1284 42.3463 64.5093 41.9413 64.0021 41.3767C63.9592 41.329 63.9148 41.2832 63.869 41.2394L63.8697 41.253C63.9102 41.9841 63.3875 42.5946 62.7526 42.5946H59.3759C58.454 42.5946 57.7816 43.6012 58.0164 44.6298L57.7128 57.2095C57.7128 54.6419 47.8677 41.5317 54.5463 36.2836C56.0925 35.0686 57.2148 35.2871 59.4401 35.2871C62.8603 33.1824 67.163 35.1466 68.2744 39.4314C68.5233 40.3912 68.6519 41.4524 68.6519 42.5946Z" fill="#2F2E41"/>
        <path d="M169.21 42.6361C168.959 42.3323 168.784 38.9876 168.474 38.7642C168.598 39.2437 168.541 42.8207 168.523 43.3211C165.797 45.4656 163.949 39.9555 162.021 39.9555C158.528 39.9555 154.277 30.8804 154.277 26.8506C154.277 22.8209 158.677 20.6806 161.892 19.1068C166.151 17.0219 170.045 21.6686 170.539 25.6593C171.83 36.0836 170.766 40.6406 169.21 42.6361Z" fill="#2F2E41"/>
        <path d="M160.848 34.331C163.718 34.331 166.045 31.646 166.045 28.3339C166.045 25.0217 163.718 22.3367 160.848 22.3367C157.977 22.3367 155.65 25.0217 155.65 28.3339C155.65 31.646 157.977 34.331 160.848 34.331Z" fill="#A0616A"/>
        <path d="M153.285 27.0319L155.875 27.4029L156.512 26.9631L156.582 27.5043C156.947 27.5565 157.317 27.3934 157.537 27.0543C157.713 26.7837 157.929 26.5485 158.176 26.3669C158.143 26.5641 158.118 26.7627 158.101 26.962C158.065 27.3778 158.318 27.7529 158.678 27.8043L162.49 28.3504C163.405 28.4814 163.965 29.5759 163.622 30.5633C163.622 30.5633 164.548 28.2528 165.376 28.9355C167.183 30.4247 172.388 27.2711 167.957 22.7739C166.552 21.3484 165.415 21.4057 163.206 21.0894C160.037 18.5146 155.557 19.8522 153.997 23.9465C153.647 24.8636 153.407 25.8984 153.285 27.0319Z" fill="#2F2E41"/>
        <path d="M164.744 64.692H149.569C150.841 61.4172 151.623 58.2983 150.4 55.8174L164.744 54.858C164.027 58.2071 163.939 61.4937 164.744 64.692Z" fill="#A0616A"/>
        <path d="M162.873 35.6698L156.844 35.1901L154.35 38.7879L153.085 39.0532C151.19 39.4509 149.84 41.4028 149.925 43.6238L150.417 56.524L164.825 57.7363L168.277 40.9375L164.12 39.0278L162.873 35.6698Z" fill="#E6E6E6"/>
        <path d="M165.493 141.253L163.023 141.32L161.646 128.516L165.291 128.417L165.493 141.253Z" fill="#A0616A"/>
        <path d="M157.019 147.199C157.019 147.681 157.315 148.071 157.68 148.071H162.583C162.583 148.071 163.065 145.833 165.033 144.87L165.168 148.071H167.698L167.391 142.924C167.391 142.924 168.068 140.171 166.663 138.763C165.257 137.355 166.395 137.551 166.395 137.551L165.843 134.366L162.021 134.884L161.993 139.885L160.138 144.848L157.417 146.399C157.175 146.537 157.019 146.852 157.019 147.199Z" fill="#2F2E41"/>
        <path d="M156.459 140.955L153.988 141.023L152.612 128.218L156.257 128.119L156.459 140.955Z" fill="#A0616A"/>
        <path d="M147.984 146.901C147.984 147.383 148.28 147.773 148.645 147.773H153.548C153.548 147.773 154.031 145.535 155.998 144.572L156.134 147.773H158.663L158.357 142.626C158.357 142.626 159.033 139.873 157.628 138.465C156.223 137.058 157.361 137.254 157.361 137.254L156.808 134.068L152.986 134.587L152.958 139.587L151.103 144.551L148.383 146.101C148.141 146.239 147.984 146.554 147.984 146.901Z" fill="#2F2E41"/>
        <path d="M150.147 62.2935L148.082 70.0373L147.308 101.608L152.674 130.844L156.811 130.186L157.81 89.8547L160.378 130.186L166.199 129.932C166.199 129.932 171.055 71.5265 164.943 64.339L164.391 61.6228L150.147 62.2935Z" fill="#2F2E41"/>
        <path d="M146.381 50.3409L137.865 57.5118L128.773 61.5941L128.141 59.117L135.591 54.015L144.844 45.8346L146.381 50.3409Z" fill="#A0616A"/>
        <path d="M127.555 62.6345C128.783 61.9265 129.484 60.67 129.12 59.8282C128.755 58.9864 127.464 58.878 126.235 59.5861C125.006 60.2941 124.306 61.5506 124.67 62.3924C125.034 63.2342 126.326 63.3426 127.555 62.6345Z" fill="#A0616A"/>
        <path d="M151.832 40.1112C151.832 40.1112 154.478 44.3023 152.565 45.9508C150.653 47.5993 144.859 55.3346 144.859 55.3346L140.07 49.2577L151.832 40.1112Z" fill="#E6E6E6"/>
        <path d="M27.6654 0C20.4662 0 14.63 6.73402 14.63 15.0409C14.63 22.0267 19.938 31.1237 24.9155 35.6024C25.3627 36.0049 25.8623 36.2851 26.383 36.4525L26.8719 38.4831C26.9735 38.9052 27.3066 39.1974 27.6863 39.1974H27.7483C28.1445 39.1974 28.4875 38.8799 28.5735 38.4336L28.9753 36.3472C29.4099 36.1691 29.8258 35.9102 30.2042 35.5684C35.7742 30.5357 40.7009 22.263 40.7009 15.0409C40.7009 6.73402 34.8647 0 27.6654 0Z" fill="#0D1C4C"/>
        <path d="M29.838 37.3743C28.2716 41.9025 27.0118 40.8708 25.8879 37.3743V36.4627H29.838L29.838 37.3743Z" fill="#3F3D56"/>
        <path d="M28.0604 36.9208L27.9716 45.5146L27.9676 45.8063L27.9498 75.6601V77.0457L27.9459 77.4832H27.5489L27.5528 77.0685V75.6601L27.5726 45.8063L27.5943 43.7484L27.6654 36.9162L28.0604 36.9208Z" fill="#3F3D56"/>
        <path d="M27.9893 77.4832H27.5904L27.5528 77.0685L27.5449 75.6601L27.385 45.8063L26.5712 36.8683L26.9643 36.8205L27.5943 43.7484L27.7819 45.8063L27.8609 75.6601L27.8629 76.0999L27.9498 77.0457L27.9893 77.4832Z" fill="#3F3D56"/>
        <path d="M29.1546 36.8683L28.3409 45.8063L28.1118 75.6601L28.098 77.4832H27.7365L27.8629 76.0999L27.8649 75.6601L27.9439 45.8063L27.9715 45.5146L28.7616 36.8205L29.1546 36.8683Z" fill="#3F3D56"/>
        <path d="M193.717 40.0647C189.385 36.0065 183.022 36.7687 179.505 41.7672C176.547 45.9709 175.89 54.437 176.988 59.9377C177.087 60.432 177.269 60.8822 177.512 61.2764L176.946 62.7739C176.828 63.0852 176.905 63.4488 177.134 63.6628L177.171 63.6977C177.409 63.9211 177.75 63.9234 177.991 63.7033L179.116 62.6744C179.453 62.8122 179.813 62.8908 180.185 62.8984C185.668 63.0099 192.135 60.8091 195.193 56.4633C198.71 51.4648 198.049 44.1229 193.717 40.0647Z" fill="#FF6584"/>
        <path d="M179.2 63.7787C174.934 67.0266 175.183 65.0879 176.823 61.552L177.209 61.0035L179.586 63.2302L179.2 63.7787Z" fill="#3F3D56"/>
        <path d="M178.323 62.5038L174.631 67.6249L174.505 67.7982L161.854 85.7522L161.267 86.586L161.08 86.847L160.841 86.6232L161.019 86.3759L161.615 85.5284L174.267 67.5755L175.151 66.3495L178.087 62.2784L178.323 62.5038Z" fill="#3F3D56"/>
        <path d="M161.106 86.8715L160.866 86.6466L161.019 86.3759L161.61 85.524L174.154 67.4697L177.449 61.6328L177.706 61.8256L175.151 66.3495L174.393 67.6935L161.8 85.7021L161.615 85.9679L161.267 86.586L161.106 86.8715Z" fill="#3F3D56"/>
        <path d="M179.003 63.089L174.729 68.0086L161.951 85.8435L161.171 86.9327L160.954 86.729L161.615 85.9679L161.803 85.7043L174.49 67.7848L174.631 67.6249L178.787 62.8387L179.003 63.089Z" fill="#3F3D56"/>
        <path d="M113.354 13.7422C107.818 16.8742 105.531 24.5913 108.245 30.9786C110.528 36.3503 117.582 41.036 122.873 42.3143C123.349 42.4292 123.824 42.4274 124.279 42.3295L125.319 43.6782C125.535 43.9586 125.887 44.0384 126.179 43.8732L126.226 43.8462C126.531 43.6738 126.691 43.2804 126.611 42.8999L126.238 41.1208C126.514 40.7948 126.749 40.4148 126.929 39.9873C129.567 33.6943 130.652 25.1898 128.292 19.6364C125.578 13.2491 118.89 10.6101 113.354 13.7422Z" fill="#0D1C4C"/>
        <path d="M127.237 41.5352C127.153 43.9266 126.523 45.2484 124.2 43.2537L123.902 42.5528L126.939 40.8343L127.237 41.5352Z" fill="#3F3D56"/>
        <path d="M125.722 41.9598L128.462 48.6065L128.554 48.8325L126.456 73.162L126.909 74.2274L127.049 74.5656L126.744 74.7383L126.611 74.4176L126.151 73.3347L128.251 49.0044L127.595 47.4126L125.417 42.1282L125.722 41.9598Z" fill="#3F3D56"/>
        <path d="M127.082 74.5466L126.775 74.7202L126.611 74.4176L126.145 73.3381L128.106 49.086L124.56 42.5674L124.847 42.3596L127.595 47.4126L128.412 48.9133L126.388 73.2006L126.533 73.538L126.909 74.2274L127.082 74.5466Z" fill="#3F3D56"/>
        <path d="M126.546 41.4435L128.841 48.6701L126.581 73.0915L127.166 74.4994L126.888 74.6566L126.533 73.538L126.391 73.1989L128.536 48.8429L128.462 48.6065L126.229 41.5777L126.546 41.4435Z" fill="#3F3D56"/>
        <path d="M0 153.646C0 153.842 0.136815 154 0.307187 154H104.407C104.578 154 104.715 153.842 104.715 153.646C104.715 153.449 104.578 153.291 104.407 153.291H0.307187C0.136815 153.291 0 153.449 0 153.646Z" fill="#CCCCCC"/>
        <path d="M112.285 147.689C112.285 147.885 112.422 148.043 112.593 148.043H216.693C216.863 148.043 217 147.885 217 147.689C217 147.492 216.863 147.334 216.693 147.334H112.593C112.422 147.334 112.285 147.492 112.285 147.689Z" fill="#CCCCCC"/>
        <path d="M170.107 54.9197L169.972 67.0831L167.349 77.9261L165.252 77.0236L166.183 67.085L166.061 53.6354L170.107 54.9197Z" fill="#A0616A"/>
        <path d="M167.34 79.6745C167.586 78.1154 167.135 76.7148 166.332 76.5463C165.53 76.3777 164.68 77.505 164.434 79.0641C164.188 80.6233 164.639 82.0238 165.442 82.1924C166.244 82.3609 167.094 81.2336 167.34 79.6745Z" fill="#A0616A"/>
        <path d="M166.924 40.4368C166.924 40.4368 171.417 40.5082 171.414 43.2623C171.41 46.0164 170.917 56.2664 170.917 56.2664L163.831 57.0425L166.924 40.4368Z" fill="#E6E6E6"/>
    </g>
    <defs>
        <clipPath id="clip0_8_145">
            <rect width="217" height="154" fill="white"/>
        </clipPath>
    </defs>
</svg>
